<?xml version="1.0" standalone="no"?><!DOCTYPE svg PUBLIC "-//W3C//DTD SVG 1.1//EN" "http://www.w3.org/Graphics/SVG/1.1/DTD/svg11.dtd"><svg t="1575355824223" class="icon" viewBox="0 0 1024 1024" version="1.1" xmlns="http://www.w3.org/2000/svg" p-id="20332" xmlns:xlink="http://www.w3.org/1999/xlink" width="128" height="128"><defs><style type="text/css">* { color: rgb(153, 153, 153) !important; text-shadow: rgb(0, 0, 0) 0px 0px 3px !important; box-shadow: none !important; background-color: transparent !important; border-color: rgb(68, 68, 68) !important; }
</style></defs><path d="M517.8112 542.07488L146.51904 302.2848c-15.95904-10.30144-36.992 1.15712-36.992 20.1472v479.56992c0 18.99008 21.02784 30.45888 36.992 20.1472l371.29216-239.77984c14.6176-9.46176 14.6176-30.848 0-40.2944z m-365.81888 214.89152V367.47776l313.66144 194.74432-313.66144 194.74432z" fill="#707070" p-id="20333"></path><path d="M931.93216 542.07488L560.64 302.2848c-15.95392-10.30144-36.992 1.15712-36.992 20.1472v479.56992c0 18.99008 21.03808 30.45888 36.992 20.1472l371.29216-239.77984c14.61248-9.46176 14.61248-30.848 0-40.2944z m-365.824 214.89152V367.47776l313.65632 194.74432-313.65632 194.74432z" fill="#707070" p-id="20334"></path><path d="M905.38496 306.24256h49.48992v511.9488h-49.48992z" fill="#707070" p-id="20335"></path></svg>