<?xml version="1.0" standalone="no"?><!DOCTYPE svg PUBLIC "-//W3C//DTD SVG 1.1//EN" "http://www.w3.org/Graphics/SVG/1.1/DTD/svg11.dtd"><svg t="1575355058320" class="icon" viewBox="0 0 1024 1024" version="1.1" xmlns="http://www.w3.org/2000/svg" p-id="1123" xmlns:xlink="http://www.w3.org/1999/xlink" width="128" height="128"><defs><style type="text/css">* { color: rgb(153, 153, 153) !important; text-shadow: rgb(0, 0, 0) 0px 0px 3px !important; box-shadow: none !important; background-color: transparent !important; border-color: rgb(68, 68, 68) !important; }
</style></defs><path d="M546.60096 582.36416l371.28704 239.77984c15.95904 10.3168 36.992-1.152 36.992-20.14208V322.432c0-18.99008-21.02784-30.44864-36.992-20.1472l-371.28704 239.79008c-14.62272 9.4464-14.62272 30.83776 0 40.28928z m52.16256-20.14208l313.65632-194.74432v389.48864l-313.65632-194.74432z" fill="#707070" p-id="1124"></path><path d="M132.48 582.36416l371.28704 239.77984c15.95392 10.3168 36.992-1.152 36.992-20.14208V322.432c0-18.99008-21.03296-30.44864-36.992-20.1472l-371.28704 239.79008c-14.6176 9.4464-14.6176 30.83776 0 40.28928z m52.16256-20.14208l313.65632-194.74432v389.48864l-313.65632-194.74432z" fill="#707070" p-id="1125"></path><path d="M109.53216 306.24256h49.48992v511.9488h-49.48992z" fill="#707070" p-id="1126"></path></svg>