<?xml version="1.0" standalone="no"?><!DOCTYPE svg PUBLIC "-//W3C//DTD SVG 1.1//EN" "http://www.w3.org/Graphics/SVG/1.1/DTD/svg11.dtd"><svg t="1575861344586" class="icon" viewBox="0 0 1024 1024" version="1.1" xmlns="http://www.w3.org/2000/svg" p-id="5408" xmlns:xlink="http://www.w3.org/1999/xlink" width="128" height="128"><defs><style type="text/css">* { color: rgb(153, 153, 153) !important; text-shadow: rgb(0, 0, 0) 0px 0px 3px !important; box-shadow: none !important; background-color: transparent !important; border-color: rgb(68, 68, 68) !important; }
</style></defs><path d="M512 143.06536865C308.80786133 143.06536865 143.8069458 307.69549559 143.8069458 511.25842285S308.80786133 879.08068848 512 879.08068848s368.1930542-164.63012695 368.1930542-368.19305421S715.56292724 143.06536865 512 143.06536865z m0 681.88018799c-173.52905273 0-314.05792237-140.52886963-314.05792237-314.05792236S338.47094727 196.82971191 512 196.82971191s314.05792237 140.52886963 314.05792237 314.05792236-140.52886963 314.05792237-314.05792237 314.05792237z" fill="#707070" p-id="5409"></path><path d="M437.84228516 669.95593262c-14.4607544 0-25.9552002-11.4944458-25.9552002-25.9552002v-241.01257324c0-14.4607544 11.4944458-25.9552002 25.9552002-25.9552002s25.9552002 11.4944458 25.95520019 25.9552002v241.01257324c0 14.4607544-11.4944458 25.9552002-25.95520019 25.9552002zM586.15771484 669.95593262c-14.4607544 0-25.9552002-11.4944458-25.95520019-25.9552002v-241.01257324c0-14.4607544 11.4944458-25.9552002 25.95520019-25.9552002s25.9552002 11.4944458 25.9552002 25.9552002v241.01257324c0 14.4607544-11.4944458 25.9552002-25.9552002 25.9552002z" fill="#707070" p-id="5410"></path></svg>