<?xml version="1.0" standalone="no"?><!DOCTYPE svg PUBLIC "-//W3C//DTD SVG 1.1//EN" "http://www.w3.org/Graphics/SVG/1.1/DTD/svg11.dtd"><svg t="1574929717974" class="icon" viewBox="0 0 1221 1024" version="1.1" xmlns="http://www.w3.org/2000/svg" p-id="5439" xmlns:xlink="http://www.w3.org/1999/xlink" width="50.080078125" height="42"><defs><style type="text/css">* { color: rgb(153, 153, 153) !important; text-shadow: rgb(0, 0, 0) 0px 0px 3px !important; box-shadow: none !important; background-color: transparent !important; border-color: rgb(68, 68, 68) !important; }
</style></defs><path d="M710.133287 6.77317l-387.914218 193.957109H162.673705a160.171032 160.171032 0 0 0-162.673705 156.417024v312.834047a158.294028 158.294028 0 0 0 162.673705 156.417024h159.545364l387.914218 190.828769a67.884988 67.884988 0 0 0 96.978555-53.181788V59.954958a67.884988 67.884988 0 0 0-96.978555-53.181788z" p-id="5440" fill="#d81e06"></path><path d="M929.117121 282.067132a42.232596 42.232596 0 0 0-53.181788-3.128341 35.037413 35.037413 0 0 0-3.128341 50.053448 229.620191 229.620191 0 0 1 31.283405 43.796766 308.141537 308.141537 0 0 1 31.283405 137.646981 318.46506 318.46506 0 0 1-31.283405 137.646981 229.620191 229.620191 0 0 1-31.283405 43.796767 31.283405 31.283405 0 0 0 3.128341 50.053447 38.791422 38.791422 0 0 0 53.181788-3.12834 231.810029 231.810029 0 0 0 43.796766-62.56681 358.194984 358.194984 0 0 0 0-331.60409 298.443681 298.443681 0 0 0-43.796766-62.566809z" p-id="5441" fill="#d81e06"></path><path d="M1141.844273 260.168748a419.823292 419.823292 0 0 0-75.080172-90.721873 34.098911 34.098911 0 0 0-46.925107 3.12834 31.283405 31.283405 0 0 0 3.128341 43.796767l18.770043 18.770043a441.096007 441.096007 0 0 1 43.796766 56.310128 391.355393 391.355393 0 0 1 62.56681 218.983833 417.946287 417.946287 0 0 1-62.56681 218.983833 269.662949 269.662949 0 0 1-43.796766 56.310129l-18.770043 18.770043a28.155064 28.155064 0 0 0-3.128341 43.796766 34.098911 34.098911 0 0 0 46.925107 3.128341 419.823292 419.823292 0 0 0 75.080172-90.721874 478.323258 478.323258 0 0 0 71.951831-250.267238 427.331309 427.331309 0 0 0-71.951831-250.267238z" p-id="5442" fill="#d81e06"></path></svg>