<?xml version="1.0" standalone="no"?><!DOCTYPE svg PUBLIC "-//W3C//DTD SVG 1.1//EN" "http://www.w3.org/Graphics/SVG/1.1/DTD/svg11.dtd"><svg t="1575861535154" class="icon" viewBox="0 0 1024 1024" version="1.1" xmlns="http://www.w3.org/2000/svg" p-id="2299" xmlns:xlink="http://www.w3.org/1999/xlink" width="128" height="128"><defs><style type="text/css">* { color: rgb(153, 153, 153) !important; text-shadow: rgb(0, 0, 0) 0px 0px 3px !important; box-shadow: none !important; background-color: transparent !important; border-color: rgb(68, 68, 68) !important; }
</style></defs><path d="M511.589869 131.211073c-210.199917 0-380.601135 170.393246-380.601135 380.58519 0 210.189287 170.401218 380.582533 380.601135 380.582533 210.198145 0 380.598478-170.39236 380.598477-380.582533 0-210.191945-170.400332-380.58519-380.598477-380.58519z m0 731.894256c-194.034713 0-351.323239-157.286754-351.323239-351.309066 0-194.025855 157.288526-351.312609 351.323239-351.312609 194.032941 0 351.322353 157.286754 351.322352 351.312609 0 194.022311-157.294727 351.309066-351.322352 351.309066z m-47.538049-507.310505c-2.683128-3.070228-6.616138-5.01636-11.017744-5.01636a14.573398 14.573398 0 0 0-8.607446 2.813342 14.743474 14.743474 0 0 0-1.970049 1.646727c-3.612346 3.615889-4.963211 8.639336-4.061453 13.313771V655.492872c-0.900872 4.675322 0.449107 9.698768 4.061453 13.317315 5.759557 5.789675 15.111087 5.789675 20.87153 0l190.126505-146.077675c2.943557-2.950644 4.376803-6.838478 4.320996-10.707709 0.055806-3.86746-1.377439-7.75618-4.320996-10.708595l-189.402796-145.521384z m3.621204 272.671003V395.583779l151.54137 116.441024-151.54137 116.441024z m0 0" p-id="2300" fill="#707070"></path></svg>