<?xml version="1.0" standalone="no"?><!DOCTYPE svg PUBLIC "-//W3C//DTD SVG 1.1//EN" "http://www.w3.org/Graphics/SVG/1.1/DTD/svg11.dtd"><svg t="1576202000490" class="icon" viewBox="0 0 1024 1024" version="1.1" xmlns="http://www.w3.org/2000/svg" p-id="3011" xmlns:xlink="http://www.w3.org/1999/xlink" width="128" height="128"><defs><style type="text/css">* { color: rgb(153, 153, 153) !important; text-shadow: rgb(0, 0, 0) 0px 0px 3px !important; box-shadow: none !important; background-color: transparent !important; border-color: rgb(68, 68, 68) !important; }
</style></defs><path d="M21.333333 981.333333h128c12.8 0 21.333333 8.533333 21.333334 21.333334s-8.533333 21.333333-21.333334 21.333333h-128c-12.8 0-21.333333-8.533333-21.333333-21.333333s8.533333-21.333333 21.333333-21.333334zM21.333333 640h128c12.8 0 21.333333 8.533333 21.333334 21.333333s-8.533333 21.333333-21.333334 21.333334h-128c-12.8 0-21.333333-8.533333-21.333333-21.333334s8.533333-21.333333 21.333333-21.333333zM21.333333 256h128c12.8 0 21.333333 8.533333 21.333334 21.333333s-8.533333 21.333333-21.333334 21.333334h-128C8.533333 298.666667 0 290.133333 0 277.333333S8.533333 256 21.333333 256zM277.333333 256h298.666667c12.8 0 21.333333 8.533333 21.333333 21.333333s-8.533333 21.333333-21.333333 21.333334h-298.666667c-12.8 0-21.333333-8.533333-21.333333-21.333334s8.533333-21.333333 21.333333-21.333333zM277.333333 981.333333h640c12.8 0 21.333333 8.533333 21.333334 21.333334s-8.533333 21.333333-21.333334 21.333333h-640c-12.8 0-21.333333-8.533333-21.333333-21.333333s8.533333-21.333333 21.333333-21.333334z" p-id="3012" fill="#1296db"></path><path d="M768 0c-8.533333 0-21.333333 8.533333-21.333333 17.066667L652.8 597.333333c-38.4-51.2-106.666667-85.333333-183.466667-85.333333-119.466667 0-213.333333 76.8-213.333333 170.666667s93.866667 170.666667 213.333333 170.666666c115.2 0 209.066667-72.533333 213.333334-166.4l64-409.6 251.733333 42.666667c12.8 0 25.6-8.533333 25.6-21.333333 0-196.266667-85.333333-298.666667-256-298.666667z" p-id="3013" fill="#1296db"></path></svg>