<?xml version="1.0" standalone="no"?><!DOCTYPE svg PUBLIC "-//W3C//DTD SVG 1.1//EN" "http://www.w3.org/Graphics/SVG/1.1/DTD/svg11.dtd"><svg t="1574992609316" class="icon" viewBox="0 0 1024 1024" version="1.1" xmlns="http://www.w3.org/2000/svg" p-id="5771" xmlns:xlink="http://www.w3.org/1999/xlink" width="42" height="42"><defs><style type="text/css">* { color: rgb(153, 153, 153) !important; text-shadow: rgb(0, 0, 0) 0px 0px 3px !important; box-shadow: none !important; background-color: transparent !important; border-color: rgb(68, 68, 68) !important; }
</style></defs><path d="M894.5 215c0-48-39-87.1-87.1-87.1h-2.2l-414.6 75.4c-46.9 1.3-84.7 39.8-84.7 87v397.5c-18.1-12.5-40-19.9-63.6-19.9-61.9 0-112.2 50.3-112.2 112.2 0 61.9 50.3 112.2 112.2 112.2 61.9 0 112.2-50.3 112.2-112.2V298.7c0-32 40.7-46.8 40.7-46.8l414.2-75.3c20.4 1 36.6 17.9 36.6 38.5V600c-18.1-12.5-40-19.9-63.6-19.9-61.9 0-112.2 50.3-112.2 112.2 0 61.9 50.3 112.2 112.2 112.2 61.9 0 112.2-50.3 112.2-112.2-0.1-6-0.1-477.3-0.1-477.3z" p-id="5772" fill="#1296db"></path></svg>